<svg width="21" height="21" viewBox="0 0 21 21" fill="none" xmlns="http://www.w3.org/2000/svg">
<path fill-rule="evenodd" clip-rule="evenodd" d="M14.0355 0.0205603C14.0508 -0.00124839 14.0808 -0.00654848 14.1026 0.00872213L15.5937 1.0528C15.6155 1.06807 15.6208 1.09812 15.6055 1.11993L13.5302 4.08382C14.5391 4.40614 15.2265 4.75383 15.2265 4.75383C15.2265 4.75383 13.5464 7.64388 10.6966 7.64388C7.8469 7.64388 5.82192 4.9503 5.82192 4.9503C5.82192 4.9503 6.53994 4.49207 7.6043 4.09906L5.32793 1.38623C5.31083 1.36583 5.31349 1.33543 5.33388 1.31832L6.72829 0.148257C6.74871 0.131144 6.7791 0.133804 6.79621 0.154199L9.67846 3.58913C9.92525 3.56121 10.1767 3.54561 10.4304 3.54561C10.7951 3.54561 11.1593 3.57333 11.5148 3.62038L14.0355 0.0205603ZM14.5993 7.78075C15.3597 7.23762 16.5105 5.82003 16.5105 5.82003C16.5105 5.82003 19.4498 8.14931 19.4498 13.0883C19.4498 18.0271 14.3681 20.9997 14.3681 20.9997C14.3681 20.9997 11.9402 18.5477 11.3442 15.4395C10.7482 12.3313 12.2259 8.88001 12.2259 8.88001C12.2259 8.88001 13.8388 8.32387 14.5993 7.78075ZM6.40914 7.78075C5.64867 7.23762 4.49794 5.82003 4.49794 5.82003C4.49794 5.82003 1.55859 8.14931 1.55859 13.0883C1.55859 18.0271 6.64027 20.9997 6.64027 20.9997C6.64027 20.9997 9.06819 18.5477 9.66422 15.4395C10.2602 12.3313 8.78255 8.88001 8.78255 8.88001C8.78255 8.88001 7.16965 8.32387 6.40914 7.78075Z" fill="white"/>
</svg>
