<svg width="21" height="21" viewBox="0 0 21 21" fill="none" xmlns="http://www.w3.org/2000/svg">
<path fill-rule="evenodd" clip-rule="evenodd" d="M11.5132 10.4541C11.6555 10.3673 11.7762 10.1855 11.8736 9.98333C13.1551 10.5071 14.0557 11.7448 14.0557 13.1882C14.0557 15.1056 12.4664 16.6601 10.5058 16.6601C9.70102 16.6601 8.95876 16.3981 8.36333 15.9567C8.16802 15.8642 8.00732 15.7753 7.87582 15.7026C7.67185 15.5899 7.5381 15.5159 7.45434 15.5275C7.20952 15.5612 7.2806 15.7865 7.3452 15.9911C7.38905 16.1301 7.42994 16.2596 7.36665 16.313C7.30045 16.369 7.08602 16.1645 6.83546 15.9256C6.49437 15.6004 6.08635 15.2114 5.89395 15.3282C5.74182 15.4206 5.88952 15.6713 6.07031 15.9781L6.08372 16.0009C6.1601 16.1305 6.24861 16.2626 6.32937 16.3831C6.49355 16.628 6.62579 16.8254 6.55963 16.8588C6.47965 16.8991 5.92241 16.523 5.45282 16.0009C5.27157 15.7993 5.09603 15.5809 4.93287 15.3779V15.3779C4.57574 14.9335 4.27822 14.5633 4.1112 14.6072C3.91029 14.6599 4.06227 15.0743 4.2856 15.4731C4.39003 15.6596 4.51287 15.8495 4.61922 16.014V16.014C4.78464 16.2697 4.91019 16.4638 4.86466 16.4876C4.80322 16.5197 4.26259 15.9926 3.89539 15.3282C3.67729 14.9336 3.49416 14.4975 3.3459 14.1445C3.18511 13.7616 3.06534 13.4765 2.98648 13.4478C2.71247 13.348 2.71247 13.9067 2.82236 14.713C2.8367 14.8182 2.85805 14.9286 2.88433 15.0409C3.95009 18.4892 7.224 21 11.0975 21C15.8355 21 19.6763 17.2435 19.6763 12.6095C19.6763 8.19902 16.197 4.58337 11.7764 4.24487C11.782 4.0371 11.8904 3.62508 11.8904 3.62508C11.8904 3.62508 12.6708 1.7369 12.7121 1.33341C12.7148 1.30663 12.718 1.27753 12.7215 1.24654C12.7701 0.810588 12.8606 0 12.1632 0C11.7908 0 11.6176 0.277046 11.4196 0.593902V0.593906C11.3435 0.715546 11.2638 0.843056 11.1677 0.963006C10.4759 1.82698 9.31252 2.90591 8.65286 3.48071C7.25858 4.69563 5.89062 5.69412 5.09279 6.27646L5.09275 6.2765C4.72988 6.54134 4.48498 6.72012 4.40918 6.79399C3.838 7.35082 1.79 11.0449 1.79 11.0449C1.79 11.0449 1.1277 12.2301 1.36311 12.4705C1.59851 12.7109 2.1662 12.6558 2.1662 12.6558C2.1662 12.6558 9.79269 10.9062 10.4755 10.7682C10.6593 10.731 10.7891 10.7096 10.8887 10.6931C11.1592 10.6485 11.2078 10.6404 11.5132 10.4541ZM6.12097 8.20575C5.71159 8.59486 5.03266 9.52366 5.03266 9.52366C5.03266 9.52366 6.29446 9.60139 6.98939 8.94083C7.68436 8.28023 7.52514 7.15448 7.52514 7.15448C7.52514 7.15448 6.5303 7.81663 6.12097 8.20575Z" fill="white"/>
</svg>
