<svg width="21" height="21" viewBox="0 0 21 21" fill="none" xmlns="http://www.w3.org/2000/svg">
<path fill-rule="evenodd" clip-rule="evenodd" d="M7.32998 19.5945C10.4063 19.5945 13.04 17.8848 14.1273 15.4611C14.1405 15.4315 9.76201 16.599 9.90162 16.1863C9.96397 16.002 12.648 15.0215 14.6035 13.8778C15.7275 13.2204 16.2451 11.8289 16.2451 11.8289C16.2451 11.8289 14.3515 12.7483 13.3942 12.9815C11.4652 13.4515 9.76709 13.4009 9.76709 13.3519C9.76709 13.246 12.5867 12.7103 16.5057 10.3222C18.349 9.19886 18.8497 7.26399 18.8497 7.26399C18.8497 7.26399 16.8231 8.47116 15.598 8.86971C12.6926 9.81483 10.0412 10.0996 10.0412 9.97176C10.0412 9.69794 12.3745 9.05633 14.8483 7.85765C16.1346 7.23442 17.2485 6.42018 18.5394 5.51467C20.6516 4.03315 21 1.39453 21 1.39453C21 1.39453 18.9167 2.73821 17.9 3.18443C13.705 5.02569 10.0008 5.99152 7.32998 6.20062C3.29831 6.51627 0 9.32925 0 12.9815C0 16.6338 3.28174 19.5945 7.32998 19.5945Z" fill="white"/>
</svg>
