<svg width="21" height="21" viewBox="0 0 21 21" fill="none" xmlns="http://www.w3.org/2000/svg">
<g clip-path="url(#clip0_625_76)">
<path fill-rule="evenodd" clip-rule="evenodd" d="M4.62509 18.0368C4.61938 18.0368 4.61541 18.0312 4.61729 18.0258L9.97865 2.87659C9.97984 2.8733 9.98296 2.87109 9.98644 2.87109H15.7098C15.7133 2.87109 15.7165 2.87331 15.7176 2.87663L20.9995 18.0258C21.0013 18.0312 20.9973 18.0368 20.9917 18.0368H4.7862H4.62509ZM0.00825669 18.0961C0.00249835 18.0961 -0.00148826 18.0903 0.000531592 18.0849L3.99298 7.42613C3.99419 7.42288 3.99726 7.42075 4.00071 7.42075H7.46968C7.47543 7.42075 7.4794 7.42645 7.47744 7.43183L3.61685 18.0906C3.61567 18.0939 3.61257 18.0961 3.6091 18.0961H0.00825669Z" fill="white"/>
</g>
<defs>
<clipPath id="clip0_625_76">
<rect width="21" height="21" fill="white"/>
</clipPath>
</defs>
</svg>
