<svg width="21" height="21" viewBox="0 0 21 21" fill="none" xmlns="http://www.w3.org/2000/svg">
<g clip-path="url(#clip0_625_108)">
<path fill-rule="evenodd" clip-rule="evenodd" d="M16.2068 10.0389C16.2056 10.0372 16.2052 10.0352 16.2055 10.0332L17.5452 2.22107C17.5458 2.21747 17.549 2.21484 17.5526 2.21484H17.9766C17.9799 2.21484 17.9828 2.21696 17.9838 2.22008L21.0021 11.7769C21.003 11.7798 21.002 11.7831 20.9995 11.785L18.7741 13.5226C18.7708 13.5251 18.766 13.5245 18.7635 13.5211L16.2068 10.0389ZM-0.0410156 15.2177C-0.0410156 15.2209 -0.0389322 15.2238 -0.0358521 15.2248L4.55171 16.7248C4.55392 16.7256 4.55639 16.7252 4.55831 16.7239L14.8126 9.64458C14.8143 9.64339 14.8155 9.64154 14.8157 9.63949L15.9154 2.26113C15.9161 2.2566 15.9125 2.25253 15.908 2.25253H6.82525C6.82299 2.25253 6.8209 2.25352 6.81946 2.25524L-0.0392919 10.5293C-0.0404061 10.5306 -0.0410156 10.5323 -0.0410156 10.5341V15.2177ZM6.46337 17.107L11.4752 18.7487C11.4774 18.7495 11.4799 18.7491 11.4819 18.7477L17.4488 14.4676C17.4521 14.4653 17.4529 14.4607 17.4507 14.4574L15.2138 11.1287C15.2115 11.1252 15.2068 11.1243 15.2034 11.1267L6.46337 17.107Z" fill="white"/>
</g>
<defs>
<clipPath id="clip0_625_108">
<rect width="21" height="21" fill="white"/>
</clipPath>
</defs>
</svg>
