<svg width="21" height="21" viewBox="0 0 21 21" fill="none" xmlns="http://www.w3.org/2000/svg">
<path fill-rule="evenodd" clip-rule="evenodd" d="M17.3156 14.2125C17.3156 17.9606 14.2658 20.9991 10.5035 20.9991C6.74129 20.9991 3.69141 17.9606 3.69141 14.2125C3.69141 10.5672 10.135 0.555676 10.4884 0.00934377C10.4965 -0.00311466 10.5106 -0.00311456 10.5186 0.00934389C10.872 0.555676 17.3156 10.5672 17.3156 14.2125ZM9.36797 18.8233C5.91117 18.067 6.5027 14.2378 6.5027 14.2378C6.5027 14.2378 7.44663 16.5493 9.73731 17.2981C12.028 18.0468 14.7962 16.9487 14.7962 16.9487C14.7962 16.9487 12.8248 19.5797 9.36797 18.8233Z" fill="white"/>
</svg>
